<?xml version="1.0" encoding="utf-8"?>
<!-- Generator: Adobe Illustrator 19.1.0, SVG Export Plug-In . SVG Version: 6.00 Build 0)  -->
<svg version="1.1" id="Layer_1" xmlns="http://www.w3.org/2000/svg" xmlns:xlink="http://www.w3.org/1999/xlink" x="0px" y="0px"
	 viewBox="0 0 595.3 841.9" style="enable-background:new 0 0 595.3 841.9;" xml:space="preserve">
<style type="text/css">
	.st0{fill:#036667;stroke:#9A3434;stroke-width:7.0258;stroke-linecap:round;stroke-linejoin:round;stroke-miterlimit:10;}
	.st1{fill:none;stroke:#9A3434;stroke-width:7.0258;stroke-linecap:round;stroke-linejoin:round;stroke-miterlimit:10;}
	.st2{fill:none;stroke:#EA262A;stroke-width:0.5068;stroke-miterlimit:10;}
	.st3{fill:#036667;}
	.st4{opacity:0.52;fill:#676868;}
	.st5{fill:#9A3434;}
	.st6{opacity:0.62;fill:#221F1F;}
	.st7{font-family:'CopperplateGothic-Bold';}
	.st8{font-size:148.9025px;}
</style>
<g id="Box_2_">
	<polygon class="st0" points="241.2,426.9 112.3,337.9 241.2,252.1 370.2,337.9 	"/>
	<polygon class="st0" points="241.2,589.6 112.3,491.7 112.3,337.9 241.2,426.9 	"/>
	<polygon class="st0" points="370.2,493.3 241.2,589.6 241.2,426.9 370.2,337.9 	"/>
	<polyline class="st1" points="176.6,296.5 241.1,339.4 241.2,339.5 305.7,382.4 	"/>
</g>
<g>
	<path class="st2" d="M457.7,315.7"/>
	<path class="st3" d="M12.3,413.2c0,41.8,102.5,85.3,259.1,87.5c35.5,0.5,62.6-2.3,89.5-7.1c4.8-0.9,9.2,2.7,9.3,7.6l-1.4,48.3
		c0.1,5.1,9.1,8.9,12.9,5.4l190.4-175.2c3.1-2.8,1-8-3.1-7.9L376,374c-6,0.1-8.2,5-8.1,10.9c0.3,17.3,0.1,50.1,0.1,50.2
		c-0.6,7.6-24,11.6-41.5,13.2c-6.7,1.2-43.5,3.1-52,3.1c-9.1,0-18.3,0-27.4,0c-4.5,0-8.9,0-13.4-0.2c-2.6-0.1-5.2,0-7.8-0.4
		c-3.8-0.1-7.7-0.3-11.7-0.5c-36.6-2.1-73.6-4.3-109.1-13c-17.1-4.2-54-13.4-54-36.7"/>
	<path class="st4" d="M12.3,407c0,41.8,102.5,85.3,259.1,87.5c35.5,0.5,62.6-2.3,89.5-7.1c4.8-0.9,9.2,2.7,9.3,7.6l-1.8,49.5
		c0.1,5.1,9.4,7.7,13.2,4.2l190.4-175.2c3.1-2.8,1-8-3.1-7.9l-193,2.1c-6,0.1-8.3,4.3-8.2,10.2c0.3,17.3,0.2,50.8,0.2,50.9
		c-0.6,7.6-24,11.6-41.5,13.2c-6.7,1.2-43.5,3.1-52,3.1c-9.1,0-18.3,0-27.4,0c-4.5,0-8.9,0-13.4-0.2c-2.6-0.1-5.2,0-7.8-0.4
		c-3.8-0.1-7.7-0.3-11.7-0.5c-36.6-2.1-73.6-4.3-109.1-13c-17.1-4.2-54-13.4-54-36.7"/>
	<path class="st5" d="M570.4,359.8l-192,0.6c-6,0.1-9.8,6.2-10,12.2c-0.6,18.1-0.3,49-0.3,49.1c-0.6,7.6-24.2,11.5-41.7,13.1
		c-6.7,1.2-43.5,3.1-52,3.1c-9.1,0-18.3,0-27.4,0c-4.5,0-8.9,0-13.4-0.2c-2.6-0.1-5.2,0-7.8-0.4c-3.8-0.1-7.7-0.3-11.7-0.5
		c-36.6-2.1-73.6-4.3-109.1-13c-17.1-4.2-54-13.4-54-36.7c0-21.8,52.5-44.9,105.1-56.4c-84.9,11.9-143.9,38.3-143.9,69
		c0,41.8,102.5,85.3,259.1,87.5c35.5,0.5,62.6-2.3,89.5-7.1c4.8-0.9,8.1,2.7,8.3,7.6l-0.3,48.4c0.1,5.1,9,8.8,12.7,5.4l190.4-175.2
		C575.2,363.4,574.6,359.8,570.4,359.8z"/>
	<g id="text_1_">
		<path class="st6" d="M73.7,314.7V390c0,1.5,0.2,2.6,0.7,3.4c0.4,0.8,1.2,1.4,2.4,1.9v2.3H56.5v-2.3c1.1-0.5,1.9-1.1,2.4-1.9
			c0.4-0.8,0.7-1.9,0.7-3.4v-75.3H39.5c-0.9,0-1.7,0.3-2.2,1c-0.5,0.7-0.9,1.9-1.2,3.7h-1.5v-25.7h1.5c0.3,1.8,0.8,3,1.3,3.7
			c0.5,0.7,1.2,1,2.2,1h54.3c1,0,1.7-0.3,2.2-1c0.5-0.7,0.9-1.9,1.2-3.7h1.5v25.7h-1.5c-0.3-1.8-0.7-3-1.2-3.7c-0.5-0.7-1.2-1-2.2-1
			H73.7z"/>
		<path class="st6" d="M120.9,364.2v26c0,1.5,0.2,2.6,0.7,3.4c0.4,0.8,1.2,1.5,2.4,2v2h-18.8v-2c1.1-0.4,1.9-1.1,2.3-1.9
			c0.5-0.8,0.7-2,0.7-3.5v-66.6c0-1.5-0.2-2.6-0.7-3.4c-0.4-0.8-1.2-1.4-2.4-2v-2h34.8c4.5,0,8,0.4,10.3,1.1c2.4,0.7,4.5,2,6.3,3.8
			c3.8,3.8,5.7,10.1,5.7,18.8c0,6.6-1.2,11.7-3.5,15.5c-2.4,3.7-6.2,6.4-11.4,8l10,21.5c1.8,4,3.3,6.7,4.4,8.1
			c1.1,1.4,2.3,2.3,3.7,2.7v2h-22.3v-2c1.6-0.7,2.5-1.8,2.5-3.3c0-1.1-0.5-2.7-1.5-4.9l-10.6-23.3H120.9z M120.9,349.4H140
			c2.9,0,5.1-0.5,6.4-1.5c2-1.3,2.9-3.9,2.9-7.8c0-3.4-0.7-5.8-2.1-7.2c-1.4-1.4-3.8-2-7.3-2h-19.1V349.4z"/>
		<path class="st6" d="M200.4,361.9v28.3c0,1.5,0.2,2.7,0.7,3.5c0.4,0.8,1.2,1.5,2.4,2v2h-18.8v-2c1.1-0.5,1.9-1.1,2.4-1.9
			c0.4-0.8,0.7-2,0.7-3.5v-28.3L172,328.7c-1.8-3.7-3.2-6.3-4.2-7.7c-1.1-1.4-2.3-2.3-3.8-2.8v-2h23.9v2c-2.1,0.8-3.1,2.3-3.1,4.4
			c0,1.1,0.7,3.2,2.2,6.4l7.7,16.4l7.5-16.4c1.5-3.2,2.2-5.4,2.2-6.5c0-2-1-3.5-3-4.4l0-2h22.7v2c-1.5,0.5-2.7,1.4-3.8,2.8
			c-1.1,1.4-2.5,3.9-4.2,7.7L200.4,361.9z"/>
		<path class="st6" d="M276.9,323.5l-6.4,19l-1.1-0.9c0-1.6-0.3-2.9-1-3.8c-1.8-2.5-4.5-4.5-8-6.1c-3.5-1.6-7.1-2.4-10.7-2.4
			c-3.1,0-5.8,0.7-8.2,2c-3.4,1.9-5.1,4.6-5.1,8.2c0,2.4,0.8,4.1,2.5,5.1c1.6,1,4.8,1.8,9.5,2.4l7.5,0.9c6.5,0.8,11.5,2.7,14.9,5.8
			c1.9,1.7,3.5,4.1,4.7,7c1.5,3.6,2.3,7.7,2.3,12.3c0,8.3-2.4,14.8-7.3,19.6c-4.6,4.6-10.9,6.9-18.9,6.9c-8,0-15.7-2.6-23.2-7.8
			c-0.5-0.3-0.9-0.5-1.3-0.5c-0.6,0-1.2,0.6-1.8,1.7l-1.2-0.7l5.4-19.9l1.2,0.7c0,0.3,0,0.5,0,0.6c0,1.3,0.3,2.3,0.9,3.2
			c1.6,2.1,4.3,4,8.2,5.6c3.9,1.6,7.7,2.4,11.5,2.4c3.3,0,6.4-0.7,9-2c3.3-1.6,4.9-4.3,4.9-8c0-3-1.1-5-3.4-6.2
			c-1.5-0.8-4.2-1.4-8.2-2l-7.4-0.9c-4-0.5-7.1-1.1-9.2-1.9c-2.1-0.8-4-1.9-5.5-3.4c-2-1.9-3.6-4.6-4.7-7.9c-1.1-3.3-1.7-7-1.7-11
			c0-8.9,2.5-15.7,7.5-20.4c4.5-4.3,10.2-6.4,16.9-6.4c3.6,0,7,0.6,10.2,1.9c3.1,1.2,6.9,3.4,11.3,6.5c1.3,0.9,2.2,1.4,2.7,1.4
			c0.5,0,1.2-0.5,1.9-1.6L276.9,323.5z"/>
		<path class="st6" d="M315.7,330.9v59.2c0,1.5,0.2,2.7,0.7,3.4c0.4,0.8,1.2,1.5,2.4,2v2H300v-2c1.1-0.4,1.9-1.1,2.3-1.9
			c0.5-0.8,0.7-2,0.7-3.5v-59.3h-15.6c-1,0-1.8,0.3-2.3,1c-0.5,0.7-0.9,1.9-1.3,3.6h-1.3v-24.1h1.3c0.3,1.7,0.7,2.9,1.2,3.6
			c0.5,0.7,1.3,1.1,2.3,1.1h44c1,0,1.8-0.3,2.3-1c0.5-0.7,0.9-1.9,1.3-3.6h1.3v24.1h-1.3c-0.3-1.7-0.7-2.9-1.3-3.6
			c-0.5-0.7-1.3-1-2.3-1H315.7z"/>
		<path class="st6" d="M358,363v19.8h33.7c1,0,1.7-0.3,2.3-1c0.5-0.7,0.9-1.9,1.3-3.7h1.3v24.1h-1.3c-0.3-1.7-0.7-2.9-1.2-3.6
			c-0.5-0.7-1.3-1.1-2.3-1.1h-49.4v-2c1.1-0.4,1.9-1.1,2.3-1.9c0.5-0.8,0.7-2,0.7-3.5v-66.6c0-1.5-0.2-2.6-0.7-3.4
			c-0.4-0.8-1.2-1.4-2.4-2v-2h48c1,0,1.8-0.3,2.3-1c0.5-0.7,0.9-1.9,1.3-3.6h1.3v24.1h-1.3c-0.3-1.8-0.7-3-1.3-3.7
			c-0.5-0.7-1.3-1-2.3-1H358v17.9h20c1,0,1.7-0.3,2.3-1c0.5-0.7,1-1.9,1.3-3.6h1.3v23.5h-1.3c-0.3-1.7-0.7-2.9-1.3-3.6
			c-0.5-0.7-1.3-1-2.3-1H358z"/>
		<path class="st6" d="M420.3,364.2v26c0,1.5,0.2,2.6,0.7,3.4c0.4,0.8,1.2,1.5,2.4,2v2h-18.8v-2c1.1-0.4,1.9-1.1,2.3-1.9
			c0.5-0.8,0.7-2,0.7-3.5v-66.6c0-1.5-0.2-2.6-0.7-3.4c-0.4-0.8-1.2-1.4-2.4-2v-2h34.8c4.5,0,8,0.4,10.3,1.1c2.4,0.7,4.5,2,6.3,3.8
			c3.8,3.8,5.7,10.1,5.7,18.8c0,6.6-1.2,11.7-3.5,15.5c-2.4,3.7-6.2,6.4-11.4,8l10,21.5c1.8,4,3.3,6.7,4.4,8.1
			c1.1,1.4,2.3,2.3,3.7,2.7v2h-22.3v-2c1.6-0.7,2.5-1.8,2.5-3.3c0-1.1-0.5-2.7-1.5-4.9L433,364.2H420.3z M420.3,349.4h19.1
			c2.9,0,5.1-0.5,6.4-1.5c2-1.3,2.9-3.9,2.9-7.8c0-3.4-0.7-5.8-2.1-7.2c-1.4-1.4-3.8-2-7.3-2h-19.1V349.4z"/>
		<path class="st6" d="M499.8,314.4c8.4,0,15.5,3.3,21.1,9.9c6.7,7.9,10.1,19,10.1,33.2c0,13.3-3.4,24-10.1,31.9
			c-5.6,6.6-12.6,9.9-21,9.9c-8.4,0-15.4-3.3-21-9.9c-6.8-7.9-10.1-18.8-10.1-32.6c0-13.9,3.4-24.8,10.1-32.6
			C484.5,317.9,491.5,314.6,499.8,314.4z M499.9,329.8c-5.5,0-9.9,2.7-13.4,8.1c-3.2,5-4.8,11.4-4.8,19c0,7.6,1.6,13.9,4.8,18.9
			c3.4,5.4,7.9,8.1,13.4,8.1c5.5,0,9.9-2.7,13.4-8.1c3.2-5,4.8-11.2,4.8-18.5c0-8-1.6-14.4-4.8-19.3
			C509.8,332.6,505.4,329.9,499.9,329.8z"/>
		<text transform="matrix(0.6518 0 0 1 26.909 394.7834)" class="st5 st7 st8">Trystero</text>
	</g>
</g>
</svg>
